<?xml version="1.0" standalone="no"?>
<!DOCTYPE svg PUBLIC "-//W3C//DTD SVG 20010904//EN"
 "http://www.w3.org/TR/2001/REC-SVG-20010904/DTD/svg10.dtd">
<svg version="1.0" xmlns="http://www.w3.org/2000/svg"
 width="600.000000pt" height="279.000000pt" viewBox="0 0 600.000000 279.000000"
 preserveAspectRatio="xMidYMid meet">
<metadata>
Created by potrace 1.16, written by Peter Selinger 2001-2019
</metadata>
<g transform="translate(0.000000,279.000000) scale(0.100000,-0.100000)"
fill="#000000" stroke="none">
<path d="M1 2631 c0 -111 4 -161 12 -165 9 -3 8 -5 0 -5 -17 -1 -19 -691 -2
-691 6 0 8 9 4 23 -5 18 -2 16 14 -8 12 -16 21 -36 21 -43 0 -7 7 -15 15 -18
8 -4 15 -15 15 -25 0 -12 5 -16 15 -13 10 4 15 0 15 -11 0 -9 9 -19 21 -22 13
-4 18 -11 14 -21 -3 -9 6 -27 22 -45 21 -22 23 -27 8 -19 -11 5 -31 22 -45 37
-14 15 -42 38 -63 51 -42 27 -47 44 -14 45 18 1 16 3 -10 11 -18 6 -34 18 -36
27 -3 9 -5 -17 -6 -57 -1 -68 0 -73 23 -82 29 -11 106 -78 106 -92 0 -5 7 -16
15 -24 8 -9 15 -23 15 -32 0 -12 -3 -13 -11 -5 -6 6 -18 9 -26 6 -14 -6 -113
83 -113 101 0 5 8 2 18 -7 12 -11 22 -13 32 -6 13 8 13 10 0 18 -8 5 -17 8
-21 5 -4 -2 -10 0 -14 6 -18 29 -25 0 -25 -100 0 -93 2 -110 16 -110 9 0 12
-5 8 -12 -5 -8 -2 -9 11 -4 11 4 22 2 27 -6 11 -18 10 -38 -3 -38 -5 0 -7 5
-4 10 3 5 2 10 -4 10 -5 0 -13 -5 -16 -10 -5 -8 -11 -7 -21 1 -12 10 -14 -2
-14 -75 0 -68 3 -88 15 -92 8 -4 15 -13 15 -21 0 -7 6 -13 13 -12 23 3 34 -1
55 -19 16 -14 18 -22 10 -30 -9 -9 -8 -12 4 -12 26 0 9 -39 -19 -46 -14 -4
-28 -3 -32 2 -3 5 -18 15 -34 22 l-27 12 1 -99 c2 -80 5 -98 17 -97 8 0 18 -8
22 -20 7 -18 5 -20 -16 -16 l-24 4 0 -187 c0 -167 2 -189 18 -201 16 -13 16
-13 0 -14 -17 0 -18 -17 -18 -205 l0 -205 230 0 c191 0 228 2 224 14 -9 24 57
27 83 4 18 -17 25 -18 43 -8 26 14 126 15 161 2 23 -9 169 -15 169 -8 0 2 -16
14 -36 25 -29 18 -35 26 -31 46 2 15 0 25 -7 25 -6 0 -17 9 -24 20 -7 11 -19
20 -27 20 -8 0 -15 4 -15 9 0 18 16 20 45 5 16 -8 49 -20 74 -26 54 -13 94
-32 137 -64 17 -13 34 -24 38 -24 4 0 19 -9 33 -20 16 -13 41 -20 67 -20 l41
0 -75 39 c-41 22 -74 45 -72 51 1 7 -3 19 -10 28 -11 13 -10 15 5 9 10 -4 20
-7 23 -7 2 0 0 -8 -3 -17 -5 -13 -2 -15 11 -10 10 4 26 2 37 -4 11 -6 25 -8
32 -6 7 2 -3 11 -21 21 -18 9 -30 21 -27 27 4 5 10 7 15 4 5 -3 11 -1 15 5 3
5 0 10 -7 11 -7 0 0 5 16 9 20 6 37 5 57 -6 16 -8 29 -10 29 -5 0 6 -34 26
-75 46 -60 29 -117 67 -184 122 -2 1 -2 5 0 8 3 2 22 -7 42 -21 l37 -25 -12
26 c-7 16 -8 29 -2 33 12 9 14 42 3 42 -5 0 -9 -5 -9 -11 0 -7 -10 -9 -25 -5
-15 4 -25 2 -25 -4 0 -7 -9 -9 -22 -4 -21 6 -22 5 -8 -11 15 -19 7 -15 -59 22
-2 2 2 9 9 18 10 12 10 18 0 30 -7 8 -16 13 -20 10 -4 -3 -13 2 -20 10 -7 8
-23 15 -36 15 -30 0 -31 18 -1 31 21 9 20 9 -6 6 -22 -4 -25 -2 -16 9 9 11 7
14 -9 14 -11 0 -22 3 -25 8 -2 4 -3 2 -1 -5 4 -18 -8 -24 -24 -10 -12 10 -16
9 -20 -1 -4 -13 -76 39 -115 83 -39 44 -96 133 -89 140 4 3 -1 12 -10 19 -24
18 -35 66 -14 66 9 0 16 -8 16 -17 0 -13 9 -19 32 -20 28 -2 78 -36 78 -54 0
-3 24 -32 52 -64 62 -67 165 -150 216 -174 40 -18 124 -70 132 -81 5 -7 114
-44 163 -54 33 -8 36 7 5 21 -13 6 -34 16 -48 22 -14 6 -45 30 -70 53 -24 23
-71 57 -105 76 -66 39 -168 118 -174 136 -3 6 3 5 13 -3 9 -8 20 -11 23 -7 4
4 1 11 -6 16 -9 5 -11 14 -6 26 5 11 7 22 7 27 -4 18 22 3 80 -46 35 -29 87
-66 115 -82 47 -25 51 -29 36 -40 -10 -7 -22 -12 -28 -11 -5 2 -7 1 -2 -1 4
-3 4 -9 1 -14 -3 -6 0 -16 6 -25 10 -11 16 -12 27 -3 7 7 17 9 20 5 4 -4 1
-11 -7 -16 -12 -7 -11 -10 5 -15 11 -4 28 -11 37 -16 11 -5 20 -5 24 3 4 7 2
14 -4 16 -7 2 -10 8 -6 13 3 5 -2 9 -11 9 -9 0 -26 9 -38 20 -18 18 -20 22 -7
30 8 6 21 8 28 5 8 -3 18 -5 23 -5 5 0 9 -7 9 -16 0 -10 5 -14 15 -10 8 3 26
0 40 -6 25 -11 25 -11 4 -29 -20 -17 -20 -17 0 -24 12 -3 21 -17 23 -32 3 -28
8 -32 83 -58 219 -77 219 -77 160 -87 -13 -3 -4 -9 28 -18 33 -10 47 -20 47
-32 0 -10 -7 -18 -15 -18 -8 0 -15 5 -15 10 0 7 -6 7 -19 0 -25 -13 -44 -13
-36 1 8 11 -25 40 -37 33 -5 -3 -8 -14 -8 -25 0 -11 -7 -19 -16 -19 -11 0 -14
5 -10 16 7 19 -16 44 -42 44 -15 0 -19 5 -15 19 3 12 -2 20 -14 23 -10 3 -27
9 -38 13 -14 6 -12 2 8 -14 15 -12 27 -25 27 -29 0 -4 -15 -17 -33 -30 -30
-19 -38 -21 -68 -11 -19 7 -40 16 -46 22 -9 6 -13 6 -13 -1 0 -6 26 -23 58
-38 31 -14 61 -33 66 -41 7 -12 10 -13 16 -2 6 9 12 10 22 2 7 -6 44 -20 83
-32 58 -19 83 -22 150 -16 142 11 233 35 338 87 80 41 103 48 130 43 17 -4 37
-11 42 -15 6 -4 26 -11 45 -15 19 -4 50 -18 70 -30 19 -12 49 -25 65 -29 28
-6 29 -5 11 9 -11 8 -26 15 -34 15 -13 0 -12 3 2 19 16 17 15 19 -7 34 -13 8
-58 43 -99 76 -49 39 -85 61 -102 61 -14 0 -68 -28 -123 -63 -135 -87 -128
-83 -120 -63 6 14 3 17 -9 12 -8 -3 -18 -6 -20 -6 -2 0 -4 -6 -4 -14 0 -9 -7
-12 -20 -9 -11 3 -20 9 -20 13 0 16 -119 32 -137 18 -7 -6 -17 -7 -23 -3 -20
12 -10 21 27 23 150 11 323 110 481 277 120 126 182 266 198 445 7 87 -8 170
-32 170 -13 0 -44 37 -44 52 0 17 17 7 30 -17 7 -14 15 -23 17 -21 10 10 -28
65 -41 60 -9 -3 -17 6 -24 25 -6 16 -19 38 -29 48 -48 51 -64 76 -55 85 6 6
16 3 27 -9 12 -11 17 -13 14 -4 -6 16 -5 16 -111 68 -43 20 -78 43 -78 50 0
18 20 27 33 14 6 -6 16 -11 21 -11 6 0 0 10 -14 21 -17 14 -21 22 -12 26 10 4
10 8 0 20 -10 12 -9 17 4 27 14 10 14 13 0 26 -14 13 -15 12 -9 -2 4 -12 0
-19 -14 -23 -19 -7 -20 -8 -3 -26 22 -24 4 -24 -38 -1 -61 33 -152 60 -185 55
-22 -3 -33 -1 -33 6 0 7 3 10 8 8 4 -3 16 -1 27 4 18 7 17 8 -7 8 -15 1 -34
-6 -42 -15 -9 -8 -16 -10 -16 -4 0 8 -6 8 -20 0 -11 -6 -20 -17 -20 -25 0 -17
-16 -20 -22 -5 -1 5 -13 7 -26 3 -14 -3 -21 -11 -18 -19 3 -8 -6 -20 -23 -28
-15 -8 -53 -36 -85 -61 -70 -58 -123 -155 -133 -244 -5 -57 -4 -61 26 -92 18
-17 29 -34 26 -37 -9 -10 -55 17 -55 33 0 8 -7 15 -15 15 -17 0 -20 -27 -6
-49 11 -17 81 -26 81 -11 0 7 8 9 22 4 30 -9 88 -47 88 -57 0 -5 -4 -6 -9 -2
-5 3 -12 1 -16 -5 -3 -6 4 -10 16 -10 39 0 5 -22 -37 -24 -45 -3 -94 22 -141
71 -23 25 -36 53 -47 103 -16 67 -15 73 4 131 25 74 39 96 109 177 65 75 104
100 129 80 13 -11 15 -11 9 4 -5 14 4 19 51 30 31 7 77 23 102 36 53 28 123
37 214 27 63 -6 66 -8 60 -28 -6 -20 -5 -20 10 -8 15 13 21 12 45 -2 25 -14
30 -15 47 -2 16 13 17 14 2 9 -11 -4 -18 -1 -18 6 0 6 -5 8 -11 4 -6 -3 -15 0
-20 7 -15 23 -10 30 16 23 47 -12 25 11 -49 50 -72 38 -74 39 -157 33 -139 -9
-219 -27 -269 -61 -25 -17 -65 -41 -89 -54 -24 -13 -66 -40 -93 -60 -49 -34
-51 -35 -64 -17 -13 17 -16 17 -29 4 -13 -13 -13 -15 6 -16 31 -3 32 -7 10
-44 -28 -49 -82 -187 -92 -234 -9 -49 16 -171 41 -200 10 -11 25 -35 34 -53
16 -32 16 -32 -2 -21 -12 8 -27 9 -38 4 -17 -8 -16 -9 6 -13 14 -2 28 -9 32
-15 5 -9 10 -9 19 0 9 9 17 6 35 -12 13 -13 24 -29 24 -35 0 -15 -26 -12 -44
5 -21 21 -36 19 -36 -6 0 -11 4 -18 9 -14 5 3 12 1 15 -4 4 -5 2 -12 -3 -15
-14 -9 -140 112 -164 158 -19 36 -21 57 -21 161 0 106 3 126 24 170 34 71 92
154 137 196 71 67 208 166 265 193 92 43 241 77 343 79 65 2 89 6 87 15 -1 6
2 12 7 12 5 0 11 -7 13 -16 3 -16 91 -52 131 -53 34 -2 7 17 -43 30 -28 7 -50
17 -50 22 0 15 62 -3 117 -34 58 -32 83 -38 64 -15 -9 11 -9 15 1 20 7 3 4 4
-8 1 -12 -3 -31 3 -47 15 -14 11 -30 20 -36 20 -6 0 -11 5 -11 10 0 6 -6 10
-12 10 -7 0 -25 6 -40 14 -15 8 -66 20 -115 26 -80 12 -98 11 -203 -10 -63
-12 -128 -28 -144 -36 -34 -16 -56 -18 -56 -4 0 6 -4 10 -10 10 -5 0 -10 -8
-10 -17 0 -11 -21 -29 -52 -47 -66 -36 -144 -96 -216 -166 -31 -30 -60 -54
-65 -52 -5 1 -6 -2 -2 -8 4 -6 -5 -24 -19 -41 -52 -62 -121 -227 -129 -309 -5
-46 16 -168 34 -201 7 -15 6 -19 -5 -19 -15 0 -29 27 -21 40 3 4 -2 10 -10 14
-18 7 -18 -2 0 -34 8 -14 15 -38 15 -55 1 -19 4 -25 8 -15 10 22 27 19 51 -9
23 -27 20 -41 -4 -21 -12 10 -15 10 -15 -1 0 -18 37 -42 45 -30 3 5 28 -12 56
-39 40 -39 114 -87 126 -83 2 1 26 -5 55 -13 54 -14 128 -19 81 -6 -16 5 -20
11 -13 21 7 12 13 13 35 3 15 -7 31 -10 36 -7 5 4 9 2 9 -3 0 -6 12 -13 26
-16 32 -8 137 42 188 90 31 30 72 92 64 98 -46 34 -75 46 -62 25 4 -8 -1 -9
-17 -4 -22 7 -22 6 -10 -9 12 -15 11 -19 -7 -32 -12 -8 -22 -21 -22 -28 0 -8
-7 -16 -15 -20 -9 -3 -15 0 -15 7 0 11 -10 11 -45 3 -25 -6 -43 -15 -41 -21 2
-5 9 -9 16 -7 6 1 10 -3 8 -10 -10 -29 -165 -31 -223 -4 -35 17 -63 45 -33 33
9 -3 23 2 33 13 16 18 51 17 39 -1 -3 -5 1 -10 8 -10 7 -1 20 -2 28 -3 8 0 15
-6 15 -13 0 -6 4 -15 9 -20 5 -4 6 9 2 31 -7 36 -6 38 8 27 12 -10 20 -11 29
-2 10 8 17 7 26 -2 11 -10 11 -8 2 10 -14 27 -14 40 0 26 17 -17 59 -3 59 19
0 10 -4 17 -8 14 -4 -2 -13 8 -20 24 -7 15 -34 49 -60 75 -36 36 -42 46 -27
45 60 -6 74 0 95 40 11 21 28 44 38 49 13 7 17 18 15 38 -9 59 81 123 171 123
100 0 193 -118 252 -320 32 -108 -6 -226 -115 -362 -111 -138 -209 -186 -416
-202 -73 -6 -88 -4 -162 23 -46 16 -83 27 -83 25 0 -6 140 -70 209 -95 59 -21
68 -22 136 -10 165 27 298 104 374 215 47 67 130 240 136 282 9 54 -18 171
-56 249 -68 137 -192 265 -255 265 -35 0 -171 -47 -205 -71 -38 -27 -123 -198
-107 -217 6 -7 8 -16 4 -20 -4 -4 -21 8 -37 26 -26 29 -29 38 -23 70 11 58 59
145 101 182 37 33 125 77 193 98 43 13 165 21 148 10 -8 -5 -9 -8 -2 -8 16 0
153 -110 195 -157 48 -53 108 -161 125 -226 17 -63 18 -144 3 -240 -15 -101
-84 -229 -169 -316 -91 -93 -151 -146 -188 -165 -36 -19 -42 -20 -42 -6 0 6 7
10 17 10 15 0 15 2 -1 19 -10 11 -15 25 -11 30 3 6 2 11 -4 11 -19 0 -81 -34
-81 -44 0 -6 4 -6 11 1 6 6 18 9 25 6 16 -6 19 -33 4 -33 -5 0 -12 -11 -16
-25 -6 -26 -27 -36 -78 -39 -18 -2 -38 -6 -45 -11 -8 -4 -17 -2 -23 6 -7 11
-11 11 -15 2 -6 -16 -23 -17 -23 -3 0 6 -9 20 -20 32 -10 12 -16 26 -13 31 4
6 12 2 21 -11 17 -26 32 -28 33 -4 0 13 2 14 6 2 7 -16 29 -40 37 -40 3 0 6
16 6 36 l0 35 -67 -1 c-38 -1 -83 1 -100 5 -27 6 -33 4 -33 -9 0 -10 7 -17 18
-16 22 3 62 -10 62 -19 0 -4 -5 -12 -12 -19 -8 -8 -9 -12 -1 -12 6 0 13 6 16
13 2 6 8 9 12 5 4 -4 5 -14 2 -22 -5 -12 -20 -14 -74 -11 -37 3 -69 9 -71 14
-2 5 -12 20 -24 33 l-20 23 6 -22 c5 -15 3 -23 -4 -23 -8 0 -11 12 -8 33 3 28
1 33 -13 30 -9 -3 -19 2 -22 10 -4 12 3 14 36 11 23 -2 33 -1 22 2 -11 3 -45
27 -75 54 -30 26 -73 56 -95 68 -44 22 -194 149 -238 201 -28 34 -30 41 -27
79 2 23 -16 31 -23 9 -2 -6 -2 -2 0 10 2 16 -1 21 -11 17 -17 -7 -66 71 -77
124 -4 21 -11 47 -14 60 -6 16 -3 22 9 22 9 0 16 -5 16 -11 0 -6 8 -8 18 -5
12 4 26 -2 38 -16 21 -23 74 -136 74 -157 0 -6 4 -11 8 -11 5 0 14 -11 20 -24
29 -64 187 -205 230 -206 6 0 12 -4 12 -10 0 -5 7 -10 15 -10 8 0 34 -9 58
-19 23 -11 54 -22 69 -25 14 -3 34 -9 45 -13 27 -11 -77 90 -112 107 -84 41
-242 188 -268 248 -6 15 -16 34 -23 42 -6 8 -14 30 -18 49 -5 29 -4 32 9 21
19 -16 19 0 0 26 -11 15 -15 16 -15 4 -2 -23 -18 21 -19 50 -1 20 1 22 9 10 7
-10 10 -11 10 -2 0 7 -7 15 -15 18 -22 9 -20 64 3 64 15 1 15 2 -2 11 -15 9
-16 13 -5 20 12 8 12 10 0 18 -12 8 -12 18 4 68 28 90 72 182 115 239 54 72
165 179 229 222 169 114 217 140 321 175 177 59 334 68 434 24 33 -14 67 -32
77 -41 11 -9 21 -11 24 -6 4 6 17 10 31 10 13 0 24 4 24 10 0 11 -89 80 -105
81 -22 2 -45 21 -45 37 0 12 -3 13 -8 5 -6 -10 -17 -10 -43 -3 -40 12 -161 12
-204 0 -16 -5 -73 -16 -125 -26 -52 -9 -102 -21 -110 -25 -8 -5 -44 -20 -80
-35 -36 -14 -84 -39 -108 -55 -24 -16 -46 -29 -49 -29 -3 0 -21 -14 -40 -31
-19 -17 -41 -28 -49 -25 -8 3 -13 1 -11 -5 1 -5 -16 -24 -39 -40 -34 -26 -44
-28 -67 -20 -15 6 -27 15 -27 20 0 11 37 35 55 36 6 1 9 6 8 13 -4 15 3 15 30
0 20 -10 21 -10 8 6 -17 20 -21 15 79 98 111 93 202 135 335 158 39 6 99 17
135 25 158 32 214 29 345 -17 17 -5 59 -16 95 -22 36 -7 71 -16 78 -20 7 -4
12 -2 12 5 0 7 10 3 23 -9 13 -12 31 -22 40 -22 9 0 17 -4 17 -10 0 -5 6 -10
14 -10 8 0 16 -4 18 -8 3 -9 72 -52 82 -52 13 0 -39 59 -52 59 -8 1 -10 6 -6
14 5 9 4 9 -6 0 -10 -10 -19 -8 -39 7 -40 28 -122 70 -137 70 -8 0 -14 4 -14
9 0 8 -32 23 -57 25 -7 1 -18 7 -25 14 -6 6 -16 12 -22 12 -5 0 -34 12 -65 27
-93 44 -142 42 -481 -22 -41 -7 -94 -24 -116 -37 -23 -13 -69 -38 -103 -57
-33 -19 -61 -37 -61 -41 0 -4 -32 -27 -71 -51 -40 -24 -106 -74 -147 -111 -74
-67 -92 -78 -92 -58 0 6 4 10 10 10 5 0 7 7 4 15 -4 8 -11 15 -16 15 -6 0 -8
-7 -4 -15 5 -15 -24 -22 -37 -8 -15 14 248 243 279 243 4 0 30 17 58 39 91 68
104 75 122 60 14 -11 15 -10 12 7 -2 15 2 18 25 16 15 -1 27 2 27 8 0 5 -7 10
-15 10 -14 0 -13 3 1 25 15 22 15 25 1 19 -14 -5 -14 -2 -4 20 7 14 18 26 25
26 18 0 15 17 -5 24 -9 4 -20 2 -23 -5 -6 -8 -9 -8 -14 0 -12 18 2 29 34 27
37 -3 38 1 5 14 -14 5 -25 16 -25 24 0 23 16 27 33 8 9 -9 27 -30 41 -45 28
-30 33 -47 14 -47 -10 0 -9 -3 1 -9 7 -5 21 -7 30 -5 60 11 81 13 77 5 -8 -12
47 -19 92 -12 l37 6 -54 23 c-30 12 -52 24 -49 27 2 3 29 -7 59 -22 45 -22 69
-26 143 -27 53 -1 100 4 113 11 28 15 54 7 46 -13 -3 -8 -2 -14 3 -12 17 4
104 -13 109 -23 4 -5 16 -9 28 -9 12 0 51 -14 85 -30 35 -17 74 -30 85 -30 12
0 44 -11 71 -25 27 -14 58 -25 69 -25 18 0 19 4 12 48 -4 26 -8 67 -9 92 -1
39 2 45 25 54 33 11 79 0 79 -20 0 -8 9 -36 19 -62 10 -26 29 -73 41 -104 12
-32 33 -69 46 -83 30 -33 31 -26 0 19 -13 19 -26 53 -30 76 -3 23 -17 58 -30
78 -13 20 -26 47 -30 60 -3 12 -9 31 -12 42 -3 11 -1 20 5 20 10 0 27 -39 22
-54 -1 -5 2 -12 7 -15 5 -3 30 -53 55 -110 55 -122 84 -163 137 -193 40 -23
58 -48 19 -28 -35 19 -32 4 3 -17 45 -27 141 -58 114 -38 -31 24 -12 27 43 9
29 -9 55 -14 58 -10 4 3 -1 6 -10 6 -9 0 -17 5 -17 10 0 6 12 10 28 10 15 0
41 8 57 19 17 10 47 23 67 30 34 11 36 14 26 37 -12 26 -23 30 -33 14 -4 -6
-12 -10 -18 -9 -38 5 -69 -2 -64 -14 6 -16 -55 -35 -136 -41 -60 -5 -70 -1
-155 61 -35 25 -80 98 -104 167 -11 33 -27 68 -34 76 -7 9 -20 36 -29 60 -8
24 -19 48 -24 54 -4 6 -11 23 -15 38 -3 14 -9 33 -12 42 -4 11 -1 16 11 16 11
0 15 -5 11 -15 -6 -16 3 -19 29 -9 13 5 14 8 3 15 -9 6 -5 9 13 9 14 0 29 -3
33 -7 4 -5 11 -8 14 -9 25 -3 41 -21 52 -57 6 -23 16 -50 21 -59 5 -10 9 -29
9 -43 0 -75 84 -186 179 -238 44 -24 153 -29 173 -8 10 11 10 14 1 18 -7 3
-13 11 -13 19 0 9 -4 12 -10 9 -6 -3 -10 3 -10 14 0 24 -8 26 -33 6 -21 -15
-87 -9 -99 9 -5 7 -8 6 -8 -3 0 -11 -5 -10 -20 4 -40 36 -72 106 -82 178 -5
40 -15 78 -21 86 -9 12 -9 13 0 8 15 -9 -9 76 -27 98 -7 8 -9 15 -5 15 4 0 2
6 -4 14 -6 7 -39 16 -74 21 -34 4 -69 8 -79 9 -9 1 -23 8 -32 15 -11 9 -16 10
-16 2 0 -11 -27 -11 -47 2 -6 4 -19 4 -28 1 -20 -8 -35 11 -35 42 0 27 21 36
57 24 15 -4 87 -11 158 -15 140 -6 223 -13 243 -20 6 -2 12 0 12 5 0 6 5 10
11 10 5 0 35 12 66 26 107 48 133 54 234 49 134 -5 232 -23 225 -41 -5 -14 4
-18 37 -14 10 1 34 -8 53 -19 19 -12 44 -21 55 -21 11 0 29 -5 41 -11 29 -15
30 -8 8 36 -11 22 -20 49 -20 62 l0 23 -707 -1 c-487 0 -711 -3 -720 -11 -9
-7 -13 -7 -13 1 0 14 -351 16 -366 2 -5 -6 -28 -13 -51 -17 -34 -5 -44 -3 -49
10 -4 11 -18 16 -46 16 -36 0 -39 -2 -27 -16 11 -14 10 -15 -11 -12 -14 2 -24
9 -23 16 5 20 -209 16 -249 -4 -28 -15 -30 -15 -25 0 6 14 -9 16 -126 16 -125
0 -134 -1 -152 -22 l-20 -23 -3 23 c-3 19 -9 22 -49 22 l-45 0 41 -42 c60 -62
50 -67 -17 -9 l-59 51 -101 0 c-56 0 -102 -2 -102 -5 0 -3 11 -16 25 -29 18
-16 35 -23 57 -21 29 2 105 -35 109 -54 8 -39 4 -52 -17 -57 -13 -3 -46 0 -74
7 -50 13 -67 29 -30 29 11 0 20 7 20 15 0 8 -3 15 -7 15 -5 0 -30 22 -58 50
l-50 49 -328 1 -328 0 2 -159z m2175 90 c-6 -11 13 -51 25 -51 6 0 9 7 5 15
-7 19 17 20 33 1 6 -7 8 -22 5 -32 -6 -16 -5 -17 7 -6 23 22 36 14 31 -20 l-4
-33 17 24 c14 18 19 20 27 10 7 -11 11 -11 15 -1 2 6 12 12 20 12 19 0 -11
-25 -78 -63 -49 -29 -75 -35 -63 -14 6 8 3 8 -9 -1 -9 -8 -21 -11 -28 -7 -6 4
-14 3 -18 -4 -4 -6 -7 36 -6 93 0 82 3 102 12 94 7 -6 11 -13 9 -17z m-696
-14 c0 -12 8 -30 18 -38 20 -17 28 -12 51 34 14 26 51 38 51 17 0 -5 -7 -10
-15 -10 -8 0 -14 -3 -13 -7 1 -5 -4 -21 -11 -37 -9 -24 -9 -38 3 -73 26 -76
60 -93 183 -93 66 0 73 -2 73 -19 0 -31 -19 -37 -120 -41 -110 -4 -128 -1
-163 30 -19 17 -41 30 -48 30 -8 0 -5 6 6 14 18 13 18 16 5 42 -12 21 -12 28
-3 31 10 3 8 10 -4 27 -15 19 -24 22 -77 18 -41 -3 -68 -10 -82 -23 -11 -11
-25 -19 -32 -19 -6 0 -15 -6 -19 -13 -4 -8 -20 -22 -34 -31 -17 -11 -29 -30
-33 -51 -5 -24 -13 -35 -24 -35 -12 0 -9 -5 11 -18 15 -9 27 -20 27 -24 0 -14
-71 -8 -86 6 -19 20 -18 26 6 26 11 0 20 5 20 10 0 6 -8 10 -17 10 -13 0 -14
3 -5 12 7 7 12 20 12 29 0 13 7 17 26 16 15 -1 29 3 31 10 3 7 -3 10 -15 6
-11 -2 -23 1 -27 7 -9 14 42 70 64 70 8 0 11 3 8 7 -12 11 25 43 49 43 13 0
26 5 30 11 3 6 15 9 25 6 11 -3 19 -1 19 3 0 7 73 35 103 39 4 1 7 -9 7 -22z
m553 -47 c15 0 18 5 15 25 -7 33 8 32 16 -1 5 -17 0 -41 -13 -67 -34 -73 -36
-93 -8 -121 33 -33 154 -46 222 -23 25 9 52 14 60 10 8 -3 18 2 21 11 8 20 34
21 34 1 0 -9 9 -15 21 -15 21 0 21 -1 -4 -24 -18 -16 -29 -39 -32 -68 -13 -94
-11 -91 -62 -85 -26 3 -52 12 -58 20 -16 22 -100 67 -126 67 -13 0 -36 4 -53
10 -17 5 -56 12 -86 15 l-56 6 3 76 c1 42 0 73 -4 69 -3 -3 -13 3 -20 14 -10
15 -21 19 -36 15 -12 -4 -17 -3 -12 2 6 4 10 15 10 23 0 8 7 13 15 11 52 -13
65 -13 53 0 -21 21 -15 39 13 39 18 0 28 6 31 21 6 21 6 20 22 -5 8 -14 24
-26 34 -26z m-1585 -124 c2 -3 5 -16 6 -30 1 -34 18 -27 30 12 10 37 15 38 79
15 40 -15 51 -15 69 -4 14 9 23 9 27 2 4 -5 33 -22 66 -37 143 -63 182 -83
194 -98 12 -14 11 -16 -5 -10 -16 6 -17 5 -6 -7 10 -11 16 -11 32 -1 21 13 70
17 70 5 0 -13 -43 -53 -57 -53 -18 0 -86 47 -136 94 -50 47 -56 46 -17 -4 17
-22 36 -40 41 -40 5 0 31 -22 57 -49 74 -78 125 -90 174 -41 17 17 28 24 25
15 -8 -20 7 -19 24 1 11 14 11 18 -2 28 -13 9 -13 16 -5 38 10 22 14 25 31 16
11 -6 23 -16 27 -22 4 -6 9 -4 14 7 8 21 50 22 58 1 22 -58 11 -70 -216 -223
-32 -21 -79 -57 -107 -80 -27 -22 -54 -41 -60 -41 -6 0 -14 -7 -17 -15 -4 -8
-11 -15 -17 -15 -7 0 -7 4 1 12 20 20 13 27 -23 21 -40 -6 -72 12 -55 31 10
14 -2 72 -26 119 -8 15 -10 27 -5 27 5 0 7 8 4 19 -4 15 2 20 31 25 32 6 39 3
72 -34 39 -43 59 -49 90 -25 19 14 19 14 -1 15 -11 0 -26 10 -34 21 -11 19
-11 21 3 16 14 -6 15 -3 6 13 -6 11 -15 20 -20 20 -6 0 -10 5 -10 10 0 6 15 0
34 -12 19 -13 32 -26 30 -30 -3 -5 0 -8 5 -8 6 0 11 -7 11 -16 0 -11 5 -14 16
-10 9 3 20 6 25 6 14 0 11 20 -3 20 -7 1 -41 22 -75 48 -34 26 -77 55 -95 64
-62 31 -241 109 -244 105 -2 -1 39 -31 90 -65 82 -55 148 -110 135 -113 -2 0
-22 -2 -44 -4 -22 -2 -52 -8 -66 -13 -23 -9 -31 -5 -75 36 -27 26 -58 59 -69
73 -30 38 -57 51 -70 32 -9 -13 -16 -13 -34 -4 -12 7 -19 16 -16 21 3 5 1 11
-5 15 -6 4 -8 11 -5 16 4 5 -6 14 -22 20 l-28 11 23 18 c25 20 28 35 10 44 -7
4 2 4 21 1 19 -3 36 -7 39 -9z m-68 -126 c0 -5 -6 -10 -14 -10 -11 0 -12 -5
-3 -25 15 -30 27 -32 27 -4 0 18 6 16 53 -21 74 -59 177 -161 177 -177 0 -7 4
-13 8 -13 4 0 14 -16 21 -36 11 -30 11 -38 0 -45 -22 -14 -29 -11 -29 11 0 11
-4 20 -10 20 -5 0 -7 8 -4 18 4 12 0 11 -15 -6 -11 -13 -25 -21 -31 -17 -6 4
-2 13 11 24 21 17 20 41 -2 41 -6 0 -8 -4 -5 -9 11 -17 -21 -20 -43 -4 -12 8
-25 12 -29 8 -4 -4 -1 -10 6 -12 13 -5 7 -23 -9 -23 -6 0 -8 4 -5 9 3 5 -1 12
-10 15 -29 11 5 39 38 32 20 -4 30 -1 34 9 4 8 11 12 17 8 5 -3 7 -2 4 4 -15
23 -86 64 -113 63 -59 -1 -79 5 -76 23 3 15 -4 17 -48 16 -27 -1 -50 -6 -50
-11 0 -5 12 -7 28 -4 26 6 62 -7 51 -18 -2 -3 -23 -8 -45 -12 -36 -5 -42 -3
-59 22 -18 28 -18 28 11 52 15 14 30 20 32 14 1 -5 12 -7 23 -5 16 4 19 11 15
29 -4 16 -1 26 11 33 23 13 33 14 33 1z m410 -399 c0 -5 -7 -14 -15 -21 -21
-18 -19 -32 5 -25 30 10 24 -5 -24 -57 -37 -39 -46 -45 -56 -32 -17 20 -29 17
-27 -6 1 -11 8 -20 15 -20 12 0 12 -3 2 -15 -7 -9 -21 -13 -31 -10 -21 7 -25
-5 -9 -21 8 -8 -2 -22 -30 -48 -23 -20 -40 -44 -38 -53 2 -9 21 -22 43 -30 42
-14 62 -29 53 -38 -15 -15 -182 109 -175 129 3 7 -2 21 -10 31 -15 19 -15 19
-10 -4 5 -21 1 -19 -33 15 -36 37 -63 94 -44 94 21 -1 54 -39 48 -55 -6 -15
-4 -15 15 -3 21 12 25 10 51 -21 19 -23 34 -32 45 -27 24 9 13 28 -28 50 -36
19 -54 55 -21 42 9 -3 25 -6 35 -6 11 0 18 -4 15 -9 -6 -9 35 -24 43 -16 2 3
-1 5 -7 5 -21 0 -13 15 18 33 16 10 36 17 44 15 8 -2 15 2 15 7 0 6 10 13 23
16 18 4 22 11 20 32 -2 22 1 27 20 28 13 0 17 3 11 6 -22 8 -14 23 12 23 14 0
25 -4 25 -9z m67 -183 c-18 -12 -29 -10 -21 5 5 7 0 6 -11 -3 -17 -14 -17 -15
-1 -18 9 -2 28 4 41 12 34 22 32 5 -3 -26 l-28 -24 -17 20 c-18 21 -18 21 -11
-4 4 -14 11 -28 17 -31 5 -4 0 -20 -14 -38 -19 -26 -25 -29 -32 -16 -9 16 -37
21 -37 6 0 -22 13 -39 26 -34 20 7 18 1 -21 -74 -19 -37 -35 -71 -35 -75 0 -4
-17 -43 -39 -87 -26 -53 -37 -88 -34 -105 4 -19 1 -26 -10 -26 -19 0 -35 22
-20 27 6 2 9 12 6 22 -2 9 3 23 11 30 9 8 16 18 16 24 0 5 -8 3 -18 -6 -14
-13 -21 -14 -30 -5 -15 15 -16 48 -1 48 5 0 8 4 4 9 -6 10 42 138 54 146 4 2
17 2 29 -1 26 -7 18 -34 -10 -34 -17 0 -18 -2 -8 -16 12 -13 16 -12 36 12 13
15 21 31 18 35 -3 5 2 9 10 9 19 0 20 10 5 44 -7 14 -16 23 -20 20 -20 -12 -6
18 29 63 21 26 51 67 66 90 26 39 29 41 47 25 14 -12 15 -18 6 -24z m178 2
c-3 -5 3 -10 14 -10 28 0 26 -11 -5 -41 -34 -32 -164 -230 -196 -299 -27 -58
-64 -242 -52 -261 4 -7 -1 -9 -15 -4 -22 7 -30 -10 -8 -18 16 -6 8 -14 -24
-22 -19 -5 -26 -3 -26 9 0 9 5 16 11 16 6 0 5 5 -2 12 -7 7 -12 20 -12 30 0
15 4 16 25 8 22 -9 25 -7 25 15 0 13 5 27 10 30 6 3 10 18 9 33 -1 27 -1 27
-15 -5 -8 -18 -19 -33 -24 -33 -13 0 -13 27 0 35 16 10 12 28 -5 21 -20 -7
-19 3 6 88 19 65 52 134 122 256 31 53 98 120 121 120 9 0 19 7 22 15 4 8 10
15 16 15 5 0 6 -4 3 -10z m-855 -34 c37 -17 61 -35 80 -59 31 -39 41 -33 25
13 -13 38 -13 40 6 40 11 0 22 -7 25 -15 4 -8 12 -15 20 -15 8 0 14 -4 14 -10
0 -5 7 -7 15 -4 8 4 15 2 15 -4 0 -5 13 -15 29 -21 15 -7 43 -27 61 -46 29
-29 32 -39 32 -92 1 -65 -29 -213 -43 -213 -5 0 -9 6 -10 13 0 10 -2 10 -6 0
-2 -7 -12 -13 -21 -13 -13 0 -14 -2 -3 -9 9 -6 5 -10 -16 -13 -24 -3 -28 0
-29 19 -2 22 10 31 19 16 2 -5 2 -2 0 6 -4 16 26 53 38 46 10 -7 46 45 49 70
5 42 1 49 -16 34 -14 -11 -16 -10 -12 11 2 19 -10 34 -62 77 -36 30 -75 58
-88 64 -32 13 -172 121 -172 133 0 5 8 2 18 -6 9 -8 24 -18 32 -22z m440 -706
c0 -5 -7 -13 -16 -18 -14 -8 -14 -12 -3 -30 18 -29 31 -28 23 2 -3 13 -1 27 5
30 7 5 11 -2 11 -15 0 -13 5 -37 12 -56 11 -29 10 -35 -7 -47 -18 -13 -18 -14
8 -9 19 4 27 1 27 -9 0 -21 79 -138 112 -167 31 -27 36 -46 13 -55 -8 -3 -15
-9 -14 -13 3 -18 -2 -33 -11 -33 -5 0 -7 7 -4 15 4 10 0 15 -14 15 -22 0 -95
77 -86 92 3 4 -2 11 -11 14 -30 12 -84 154 -89 235 -4 57 -3 59 20 59 13 0 24
-4 24 -10z m74 -702 c10 17 29 15 23 -3 -4 -8 -2 -17 3 -20 6 -4 10 -1 10 5 0
6 5 8 10 5 6 -4 8 -15 5 -26 -4 -11 -2 -19 6 -19 6 0 18 -8 25 -17 13 -17 14
-17 7 2 -3 11 -11 23 -17 27 -6 4 -7 10 -4 14 4 3 19 -3 35 -13 37 -25 97 -53
116 -53 8 0 25 -11 38 -25 13 -13 29 -25 36 -25 19 0 26 -20 13 -35 -10 -12
-9 -15 5 -15 9 0 15 -6 12 -12 -2 -7 -18 -13 -35 -13 -16 0 -28 -3 -25 -7 2
-5 -1 -8 -6 -8 -6 0 -17 16 -26 36 -12 30 -18 34 -36 29 -19 -6 -21 -4 -17 13
4 15 2 19 -8 15 -8 -3 -11 -9 -8 -14 10 -17 -11 -9 -56 21 -25 16 -49 30 -53
30 -6 0 -100 59 -135 85 -9 7 12 33 24 28 8 -3 12 -8 10 -11 -9 -8 14 -32 30
-32 8 0 14 5 14 10 0 6 -7 10 -15 10 -8 0 -15 8 -15 18 0 29 14 36 20 10 4
-15 8 -19 14 -10z"/>
<path d="M3944 2727 c-1 -34 -4 -73 -7 -87 -3 -14 -6 -31 -6 -37 -1 -7 -8 -13
-16 -13 -8 0 -15 -5 -15 -12 0 -6 -9 -3 -20 7 -11 10 -20 13 -20 7 0 -7 -4
-12 -10 -12 -5 0 -10 12 -10 27 l0 26 -24 -22 c-22 -20 -42 -23 -106 -12 -3 1
2 6 10 12 12 8 10 9 -9 4 -15 -5 -27 -2 -33 6 -5 9 -6 4 -2 -13 3 -16 2 -28
-3 -28 -6 0 -25 -14 -43 -31 -32 -31 -32 -33 -17 -58 17 -27 38 -31 90 -18 20
6 27 4 27 -7 0 -8 4 -16 10 -18 11 -4 51 -139 54 -183 1 -16 4 -34 7 -40 9
-17 14 -76 13 -160 -1 -72 -6 -91 -49 -187 -38 -87 -61 -123 -121 -191 -41
-47 -91 -96 -112 -109 -20 -14 -59 -46 -86 -71 -42 -39 -54 -45 -82 -41 -18 2
-36 -1 -39 -6 -4 -6 7 -10 26 -10 27 0 30 -2 18 -16 -7 -8 -42 -30 -78 -48
-38 -19 -91 -58 -123 -90 -47 -47 -65 -57 -100 -62 -24 -3 -50 -8 -58 -11 -8
-3 -35 -7 -60 -10 -40 -4 -49 -1 -80 29 -20 18 -43 44 -52 58 l-16 25 5 -27
c3 -16 1 -28 -5 -28 -5 0 -13 12 -16 28 -4 15 -10 36 -13 47 -5 17 -4 18 9 7
14 -11 15 -7 11 31 -4 35 0 52 21 85 25 40 29 42 74 42 26 0 85 -4 132 -9 103
-11 154 -1 302 59 144 59 209 114 320 275 49 70 59 94 74 165 26 131 13 220
-56 361 -38 79 -54 97 -108 120 -52 23 -48 23 -56 3 -3 -8 -2 -13 3 -10 8 5
81 -59 81 -71 0 -2 13 -23 29 -46 33 -49 57 -123 66 -205 19 -168 -115 -388
-290 -476 -38 -19 -74 -32 -79 -29 -5 4 -1 9 9 13 16 5 16 7 3 12 -19 8 -84
-6 -102 -21 -11 -9 -15 -9 -19 1 -4 10 -6 10 -6 1 -1 -14 -41 -18 -41 -4 0 4
26 14 59 20 160 32 345 264 358 451 5 59 2 71 -28 129 -19 35 -43 69 -54 75
-60 32 -95 58 -92 69 1 6 -6 12 -15 12 -9 0 -29 10 -45 23 -15 12 -21 22 -14
22 7 0 22 -10 33 -22 15 -18 18 -19 14 -5 -7 23 6 22 34 -3 24 -21 40 -26 40
-12 0 4 -23 29 -50 57 -28 27 -50 55 -50 62 0 19 -45 28 -135 28 -94 0 -131
-17 -208 -98 -59 -61 -79 -54 -52 20 39 104 128 163 252 166 97 2 161 -15 212
-59 45 -39 82 -46 74 -14 -3 11 -13 26 -22 33 -9 7 -22 20 -30 30 -12 15 -11
20 8 36 15 13 18 20 9 23 -7 3 -17 -1 -23 -8 -8 -11 -22 -9 -70 8 -52 18 -75
20 -168 14 -104 -5 -109 -7 -165 -45 -32 -21 -79 -60 -104 -86 -41 -41 -47
-53 -53 -103 -7 -63 4 -104 37 -139 24 -26 40 -30 32 -9 -7 17 12 30 46 30 18
1 25 6 23 19 -1 14 4 17 18 14 10 -3 19 -1 19 4 0 18 37 8 60 -16 13 -14 31
-25 39 -25 9 0 29 -7 45 -15 15 -8 36 -15 46 -15 10 0 38 -11 61 -25 24 -14
50 -25 57 -25 20 0 5 38 -27 67 -17 17 -22 26 -13 30 6 2 12 11 12 19 0 8 6
14 13 14 23 0 28 -13 11 -31 -14 -15 -14 -18 3 -30 17 -13 53 -70 53 -84 0 -3
-5 -3 -12 1 -7 4 -8 3 -4 -4 4 -6 13 -9 21 -5 18 6 20 20 4 25 -7 2 -4 10 7
18 10 8 15 10 11 3 -4 -6 -2 -13 5 -15 9 -3 8 -12 -6 -32 -10 -16 -13 -25 -7
-22 6 4 11 3 11 -2 0 -6 7 -13 16 -16 11 -4 14 -2 11 6 -3 7 -8 21 -12 31 -12
30 12 18 34 -17 44 -70 20 -206 -50 -287 -17 -19 -37 -46 -45 -61 -18 -34
-111 -95 -173 -113 -25 -8 -101 -24 -169 -36 -107 -19 -131 -20 -185 -10 -66
13 -214 62 -259 87 -14 7 -36 14 -48 14 -11 0 -19 4 -15 9 10 17 -11 21 -39 8
-23 -11 -37 -30 -18 -25 10 2 62 -23 97 -48 25 -17 164 -78 250 -108 15 -5 16
-9 6 -15 -9 -6 -10 -11 -2 -15 6 -4 11 -2 11 3 0 6 14 11 31 11 27 0 29 -2 15
-15 -8 -8 -23 -15 -33 -16 -16 0 -16 -1 2 -9 19 -8 18 -9 -4 -9 -14 -1 -33 7
-44 17 -15 12 -21 14 -24 4 -3 -6 -9 -10 -14 -6 -18 11 -9 24 17 24 35 0 21
17 -23 29 -39 11 -57 6 -33 -9 7 -5 15 -16 16 -24 3 -22 -23 -20 -29 2 -4 14
-5 14 -6 1 0 -9 -14 -22 -30 -29 -39 -16 -43 -39 -14 -86 31 -51 93 -180 93
-195 0 -25 62 -188 96 -251 8 -14 14 -34 14 -45 -1 -16 -3 -15 -21 6 -17 21
-22 22 -30 10 -12 -20 -11 -24 9 -41 21 -18 60 -21 89 -7 12 7 33 9 48 5 43
-11 51 -66 10 -66 -5 0 -3 5 5 10 12 8 10 10 -10 10 -84 1 -121 8 -140 26 -10
10 -38 38 -60 62 -55 58 -93 58 -156 0 -26 -24 -50 -52 -55 -63 -8 -20 -8 -20
-9 0 0 16 -2 17 -10 5 -5 -8 -7 -24 -4 -35 5 -22 -43 -141 -130 -316 -46 -93
-56 -120 -48 -135 18 -34 152 -157 152 -140 0 8 13 22 30 31 62 32 124 100
168 185 24 45 40 62 59 58 22 -4 31 -65 12 -82 -9 -8 -10 -8 -5 2 4 6 2 12 -4
12 -6 0 -13 -7 -17 -16 -3 -8 -12 -13 -19 -10 -8 3 -14 1 -14 -4 0 -9 -26 -43
-59 -77 -7 -7 -14 -24 -15 -38 -1 -19 -6 -23 -28 -20 -21 3 -25 0 -21 -13 5
-11 2 -14 -10 -9 -11 4 -20 -1 -27 -13 -16 -30 -48 -44 -66 -29 -11 9 -14 9
-14 0 0 -8 -12 -11 -32 -9 -28 2 -34 8 -36 31 -3 26 -6 28 -33 22 -34 -8 -71
17 -62 41 3 8 0 14 -6 14 -19 0 -12 -36 12 -58 13 -12 36 -22 53 -23 l29 -1
-28 -10 c-40 -14 -73 11 -105 80 -34 75 -32 126 9 200 17 31 42 84 54 117 66
179 82 210 132 266 78 88 170 256 180 331 7 51 -16 86 -140 204 -110 106 -220
194 -243 194 -8 0 -26 7 -40 17 -29 19 -94 24 -110 9 -13 -12 -7 -36 8 -36 5
0 7 4 3 9 -3 6 4 15 15 21 24 13 66 -9 114 -60 27 -30 28 -31 10 -45 -11 -8
-14 -15 -8 -15 5 0 15 5 22 12 8 8 15 9 22 2 8 -8 6 -15 -5 -24 -21 -17 -19
-30 5 -30 14 0 20 7 20 21 0 18 2 19 15 9 10 -8 13 -21 9 -33 -4 -12 -2 -17 5
-13 18 12 51 -17 51 -46 0 -15 5 -30 10 -33 6 -3 10 3 10 14 0 28 25 27 53 -2
51 -53 98 -114 104 -135 3 -13 1 -33 -4 -45 -6 -12 -16 -33 -22 -47 -18 -39
-73 -124 -108 -167 -44 -53 -89 -141 -97 -191 -6 -42 -64 -174 -78 -180 -5 -2
-8 -10 -8 -18 0 -8 -3 -14 -8 -14 -4 0 -13 -14 -20 -30 -8 -17 -29 -46 -49
-66 -32 -33 -36 -35 -52 -20 -24 22 -34 20 -21 -3 14 -26 13 -31 -5 -25 -8 4
-15 3 -15 0 0 -4 12 -11 28 -17 15 -7 22 -13 15 -16 -7 -3 -13 -9 -13 -14 0
-6 5 -7 10 -4 6 3 11 1 11 -4 3 -20 5 -26 26 -71 12 -25 42 -72 67 -105 52
-68 55 -82 24 -94 -22 -8 -20 -10 17 -26 62 -26 99 -29 156 -10 30 9 60 19 68
21 11 3 11 7 1 19 -11 14 -8 15 26 10 52 -8 199 43 222 77 9 12 23 30 32 38
28 26 90 158 90 193 0 23 -9 41 -34 65 -19 19 -33 39 -30 46 8 21 -21 47 -59
52 -21 2 -37 0 -37 -6 0 -5 -6 -10 -14 -10 -8 0 -25 -15 -37 -32 -13 -18 -27
-34 -31 -36 -4 -2 -8 -8 -8 -13 0 -6 -15 -34 -34 -63 -37 -58 -77 -79 -103
-53 -12 12 -12 19 1 53 57 153 79 218 98 292 12 50 31 96 45 113 14 16 21 34
17 40 -5 9 3 10 32 6 41 -7 70 -34 80 -77 7 -29 59 -88 89 -101 11 -5 27 -13
35 -19 45 -30 79 -36 150 -24 l35 6 -34 18 c-19 9 -43 15 -54 12 -15 -4 -19
-1 -15 10 4 10 -4 18 -27 26 -17 7 -40 21 -49 31 -17 18 -16 20 4 26 13 4 27
2 34 -5 8 -10 5 -11 -14 -5 -14 4 -22 4 -17 -1 11 -11 78 -34 102 -34 11 0 42
-11 69 -25 40 -20 52 -23 63 -13 14 15 20 131 9 166 -10 31 -89 67 -138 63
-61 -4 -99 29 -65 57 7 6 56 23 107 37 84 22 99 30 144 74 109 105 181 129
228 74 36 -43 79 -68 89 -52 6 11 13 10 36 0 16 -8 23 -16 16 -18 -7 -3 -13
-11 -13 -19 0 -10 8 -12 31 -7 39 7 139 61 139 74 0 6 5 7 10 4 6 -4 33 14 61
39 28 25 55 46 59 46 10 0 50 -49 50 -62 0 -5 -15 -24 -32 -42 -18 -19 -45
-47 -59 -62 -33 -36 -150 -106 -166 -99 -7 2 -12 -1 -10 -7 2 -14 -67 -53
-112 -63 -31 -7 -32 -6 -62 62 -17 37 -40 78 -52 90 -28 31 -77 39 -115 19
-44 -23 -90 -93 -86 -131 2 -16 6 -70 9 -119 3 -49 10 -95 17 -103 9 -11 9
-17 -3 -24 -10 -8 -8 -9 9 -4 12 3 22 3 22 -2 0 -4 18 -21 40 -37 22 -17 37
-33 33 -37 -5 -5 -31 -10 -58 -13 -42 -4 -136 -44 -155 -65 -11 -13 -54 -33
-74 -36 -12 -1 -36 -5 -53 -9 -27 -6 -33 -4 -33 8 0 9 -5 16 -11 16 -6 0 -8
-7 -5 -16 3 -8 -1 -22 -9 -30 -8 -9 -15 -21 -14 -27 0 -9 2 -9 6 0 3 10 9 10
24 0 21 -13 25 -29 7 -26 -7 1 -25 -3 -40 -9 -24 -10 -28 -17 -28 -52 0 -25 4
-39 10 -35 6 3 10 1 10 -4 0 -6 -16 -17 -35 -25 -24 -10 -35 -21 -35 -36 0
-11 -7 -23 -15 -26 -14 -6 -13 -8 1 -19 21 -15 10 -37 -14 -28 -15 6 -15 5 -3
-10 11 -14 11 -18 -3 -23 -9 -3 -16 -12 -16 -20 0 -17 -27 -19 -33 -1 -10 27
-16 -2 -7 -33 8 -30 7 -36 -18 -57 -30 -26 -127 -57 -144 -47 -7 4 -8 3 -4 -4
8 -13 -58 -50 -101 -57 -105 -18 -143 -22 -178 -19 -63 5 -87 13 -79 27 5 9 4
9 -5 1 -10 -9 -26 -4 -67 21 -76 46 -82 52 -77 79 3 13 0 27 -6 30 -7 5 -11
-2 -11 -18 0 -14 -5 -26 -11 -26 -7 0 -9 9 -6 21 5 17 3 18 -10 7 -14 -11 -16
-10 -9 15 6 24 4 27 -19 27 -23 0 -29 -8 -22 -27 1 -5 5 -7 10 -5 9 3 9 -2 -3
-32 -13 -34 -34 -35 -26 -1 5 18 2 25 -9 25 -8 0 -15 7 -15 15 0 12 -17 6 -72
-22 -40 -20 -77 -36 -81 -35 -12 3 -47 -17 -44 -26 1 -4 -3 -7 -8 -7 -5 0 -9
4 -7 9 2 5 -11 6 -29 2 -17 -3 -40 -6 -50 -6 -11 0 -19 -4 -19 -10 0 -5 6 -10
13 -10 8 0 19 -11 25 -25 18 -38 15 -41 -12 -12 -16 18 -31 25 -42 20 -10 -4
-20 0 -26 11 -12 22 -70 19 -66 -4 2 -8 13 -15 24 -16 11 -1 29 -6 40 -12 16
-9 15 -11 -16 -20 -53 -15 -220 -5 -306 19 -42 11 -78 19 -80 16 -7 -6 113
-87 128 -87 9 0 8 3 -2 10 -10 6 -11 13 -5 19 7 7 25 3 54 -9 36 -17 65 -20
170 -20 l126 1 -24 19 c-13 11 -18 20 -12 20 7 0 9 5 6 10 -3 6 -1 10 4 10 6
0 11 -6 11 -13 0 -25 36 -48 64 -41 24 6 37 24 17 24 -10 0 -31 54 -31 78 0
12 6 10 25 -8 14 -13 25 -32 25 -42 0 -19 25 -25 35 -8 11 17 28 11 22 -9 -10
-39 9 -46 47 -17 38 28 48 25 19 -6 -15 -17 -14 -18 46 -18 53 0 66 4 81 23
10 12 22 19 26 15 4 -4 1 -14 -6 -23 -11 -13 2 -15 114 -15 69 0 126 4 126 8
0 5 12 14 26 21 23 10 26 9 31 -9 5 -18 14 -20 82 -20 79 0 159 23 296 85 68
30 212 123 236 151 29 35 67 109 89 173 12 36 32 85 45 111 24 48 95 120 118
120 8 0 27 6 43 14 16 8 59 16 96 19 90 7 190 59 258 134 28 30 50 60 50 66 0
6 -9 21 -21 33 l-21 22 -41 -43 c-23 -24 -59 -53 -79 -64 l-38 -20 -38 57
c-49 71 -68 107 -53 98 6 -4 11 -1 11 8 0 8 -4 18 -10 21 -5 3 -10 1 -10 -6 0
-30 -18 10 -27 60 -10 51 -9 55 15 78 14 12 33 23 42 23 24 0 32 -54 11 -77
-15 -16 -15 -16 2 -4 14 11 17 11 18 0 4 -81 19 -102 68 -94 32 6 195 24 213
25 13 0 55 45 82 89 31 48 141 158 168 167 10 3 30 26 44 50 l27 45 -62 60
c-79 76 -87 74 -170 -26 -35 -43 -93 -85 -117 -85 -37 0 -100 36 -128 73 -31
40 -32 49 -8 70 26 24 40 21 71 -12 20 -21 34 -28 49 -24 25 6 51 33 33 33 -7
0 -19 7 -27 15 -14 13 -14 15 0 15 13 0 14 3 5 18 -8 12 -21 18 -38 16 -17 -2
-19 -1 -6 2 30 9 45 28 17 21 -28 -7 -52 1 -52 15 0 6 7 8 15 4 8 -3 14 0 12
6 -1 6 3 12 10 15 6 2 13 -4 15 -14 3 -15 7 -12 20 12 9 17 43 57 75 89 81 83
119 146 153 256 38 119 41 258 10 388 -29 120 -28 125 29 166 59 43 121 111
121 131 0 8 7 32 15 53 12 28 25 41 50 51 34 12 65 53 65 86 0 12 -13 15 -61
15 -52 0 -60 -2 -50 -14 8 -9 8 -16 2 -20 -6 -4 -15 3 -21 14 -6 11 -21 20
-33 20 -20 0 -22 -5 -23 -63z"/>
<path d="M4216 2751 c-5 -35 -39 -107 -56 -121 -4 -3 -20 -26 -37 -51 -18 -25
-49 -59 -70 -75 -21 -16 -55 -47 -76 -69 -43 -44 -44 -55 -17 -195 23 -125 -8
-357 -62 -464 -42 -82 -208 -266 -241 -266 -6 0 -18 -4 -26 -9 -12 -8 -12 -12
2 -25 21 -22 59 -14 94 18 15 14 31 26 36 26 4 0 12 10 17 23 7 17 9 18 9 5 1
-11 9 -18 22 -18 11 0 28 -4 37 -9 9 -4 33 -11 52 -15 33 -6 39 -2 110 67 64
62 84 75 136 90 88 25 138 22 224 -14 53 -23 78 -29 90 -22 11 8 36 1 92 -23
84 -37 138 -38 138 -3 0 11 0 22 1 27 1 4 -17 17 -40 30 -27 15 -39 18 -35 8
7 -17 -43 -28 -69 -14 -10 5 -30 9 -45 8 -15 -1 -30 -1 -34 0 -5 1 -11 3 -15
4 -24 6 -74 44 -84 64 -16 29 -42 35 -137 31 -70 -4 -83 -8 -136 -43 -32 -21
-85 -62 -118 -92 -33 -30 -64 -54 -68 -54 -4 0 -14 8 -24 18 -15 18 -15 21 5
45 11 15 17 27 13 27 -4 0 2 10 12 23 41 45 94 167 103 235 12 81 14 275 5
354 -12 104 41 140 111 76 41 -36 44 -48 13 -42 -17 3 -16 1 5 -7 33 -13 33
-17 3 -93 -28 -70 -52 -238 -42 -291 8 -43 18 -48 147 -70 52 -8 116 -23 142
-31 26 -9 50 -14 53 -11 3 2 -9 10 -27 16 -46 16 -29 25 19 10 48 -14 68 -8
84 25 9 22 7 31 -15 65 -25 38 -25 39 -4 34 12 -3 29 -12 39 -20 11 -10 18
-11 23 -4 3 6 -5 15 -19 21 -14 5 -26 16 -26 25 0 8 -8 15 -17 16 -17 0 -17 1
-1 7 28 11 6 32 -35 34 -20 1 -37 4 -37 7 0 12 -49 29 -53 18 -7 -22 -27 6
-27 38 0 24 9 45 30 69 37 42 60 39 98 -15 27 -38 72 -66 90 -55 5 3 33 -4 63
-15 39 -15 94 -23 207 -30 203 -12 245 -4 377 72 139 80 151 84 270 87 l110 4
55 42 c54 42 177 182 247 283 37 54 73 163 73 220 0 31 -2 33 -35 33 -34 0
-35 -1 -36 -37 -3 -104 -6 -125 -26 -150 -11 -16 -28 -27 -36 -27 -10 1 -13
-4 -10 -13 4 -9 -2 -16 -15 -20 -11 -3 -19 -10 -16 -16 2 -7 -6 -23 -19 -37
-12 -14 -35 -46 -49 -71 -63 -108 -133 -143 -271 -135 -72 4 -130 -13 -172
-51 -58 -53 -120 -81 -216 -100 -66 -12 -252 -6 -314 11 -77 21 -168 21 -189
0 -22 -22 -32 -12 -72 69 -20 40 -51 89 -69 110 -34 39 -34 39 -62 22 -24 -14
-28 -23 -29 -64 -1 -28 -12 -68 -27 -97 -40 -80 -42 -105 -10 -136 15 -14 51
-38 78 -54 28 -16 59 -36 70 -46 11 -9 31 -25 44 -36 55 -43 -26 -52 -107 -11
-20 11 -52 19 -72 20 -19 0 -44 4 -55 8 -11 5 -25 4 -32 -1 -20 -16 -43 10
-43 47 0 33 42 244 55 278 5 11 2 17 -8 17 -8 0 -20 6 -26 14 -10 11 -8 16 9
21 12 4 19 12 17 18 -2 7 0 24 4 39 4 16 3 30 -2 33 -5 4 -9 1 -9 -5 0 -15
-70 -6 -82 11 -16 24 -1 89 30 128 16 20 32 48 35 63 4 15 12 40 19 55 13 31
15 38 17 53 0 6 10 10 21 10 40 0 48 -126 12 -178 -12 -16 -19 -37 -16 -46 6
-16 11 -18 94 -36 37 -8 73 -26 111 -55 l56 -42 11 30 c8 22 9 34 1 44 -13 14
-1 17 19 5 7 -5 10 -16 6 -28 -7 -19 -6 -19 8 0 13 17 13 21 -1 38 -8 10 -25
18 -36 18 -13 0 -25 12 -35 33 -12 26 -21 32 -50 35 -71 5 -104 13 -90 22 11
7 11 11 1 23 -7 10 -13 54 -14 116 l-2 101 -61 0 -61 0 -7 -39z"/>
<path d="M4440 2776 c0 -12 20 -54 69 -140 12 -21 49 -74 81 -116 33 -43 56
-82 52 -86 -4 -5 -3 -6 2 -2 5 4 31 -5 60 -19 58 -30 88 -40 170 -58 52 -12
67 -11 127 5 106 27 180 79 255 177 34 44 36 51 30 99 -3 29 -9 59 -12 68 -9
23 -23 20 -17 -4 6 -22 -7 -26 -25 -8 -6 6 -15 9 -19 5 -4 -4 -1 -13 5 -19 40
-40 -34 -174 -118 -215 -74 -36 -247 -48 -279 -19 -24 22 -30 20 -41 -9 -5
-14 -13 -25 -18 -25 -15 0 -143 131 -137 140 3 5 -1 12 -8 17 -28 17 -76 101
-93 161 -16 60 -17 62 -50 62 -22 0 -34 -5 -34 -14z"/>
<path d="M4565 2779 c-11 -17 3 -23 20 -9 13 11 17 7 30 -21 9 -19 25 -49 36
-68 20 -33 18 -60 -2 -31 -9 13 -10 13 -6 0 2 -8 12 -17 23 -18 22 -4 114 -91
111 -105 -1 -5 13 -11 32 -13 19 -2 40 -9 48 -15 17 -15 147 -3 185 17 59 31
104 132 64 147 -21 8 -27 57 -7 65 9 3 28 14 43 25 19 14 35 18 58 13 23 -4
30 -2 27 7 -3 9 -48 13 -168 14 -149 2 -161 1 -131 -12 17 -8 32 -19 32 -25 0
-13 -17 -13 -25 0 -3 6 -11 10 -18 10 -8 0 -8 -3 1 -12 20 -20 14 -28 -19 -24
-21 2 -40 14 -56 34 -19 25 -32 32 -59 32 -32 0 -35 -2 -28 -22 14 -46 119
-118 170 -118 16 0 46 13 67 30 33 24 42 27 63 18 49 -22 22 -86 -48 -116 -29
-12 -128 -5 -128 9 0 5 -8 9 -19 9 -10 0 -30 9 -44 20 -35 28 -45 25 -17 -5
13 -14 20 -28 15 -32 -4 -5 -10 -2 -12 5 -3 6 -10 12 -16 12 -20 0 -77 73
-105 133 -26 56 -27 57 -68 57 -24 0 -46 -5 -49 -11z"/>
<path d="M5345 2773 c4 -10 9 -49 12 -88 6 -98 9 -110 43 -148 26 -30 33 -33
69 -28 47 7 91 42 91 73 1 38 33 93 56 96 30 4 62 42 70 80 l7 32 -61 0 c-50
0 -60 -3 -56 -15 4 -8 2 -15 -4 -15 -5 0 -12 7 -16 15 -6 17 -86 22 -86 5 0
-5 7 -10 15 -10 14 0 18 -12 18 -55 -1 -46 -4 -53 -25 -58 -32 -9 -36 2 -9 22
26 20 23 36 -9 44 -17 4 -20 0 -20 -28 0 -43 17 -88 30 -80 6 4 8 11 5 16 -4
5 -1 9 4 9 20 0 11 -39 -10 -51 -30 -15 -36 -4 -49 81 -16 102 -24 120 -56
120 -21 0 -25 -3 -19 -17z"/>
<path d="M5780 2760 c0 -26 -14 -64 -30 -80 -3 -3 -9 -12 -15 -21 -79 -123
-149 -206 -189 -223 -39 -16 -120 -7 -158 18 -36 23 -54 16 -124 -49 -82 -76
-123 -104 -197 -130 -63 -23 -91 -25 -192 -9 -47 7 -106 25 -120 36 -5 4 -19
8 -32 8 -13 0 -23 4 -23 9 0 5 -7 11 -15 15 -13 5 -14 2 -4 -17 12 -21 11 -21
-7 -7 -10 8 -23 21 -27 28 -5 7 -13 10 -19 6 -17 -11 40 -51 150 -105 102 -51
102 -52 180 -46 86 5 193 44 298 108 83 51 96 54 204 51 118 -4 134 5 216 114
33 43 67 86 76 96 34 34 69 119 72 174 3 51 2 54 -20 54 -20 0 -24 -5 -24 -30z"/>
<path d="M5977 2664 c-4 -4 -7 -19 -7 -33 0 -18 3 -22 9 -13 5 9 8 3 7 -17 -1
-34 -12 -41 -19 -13 -3 15 -5 15 -12 -3 -10 -25 -95 -148 -109 -157 -7 -5 -4
-8 7 -8 20 0 23 -16 5 -23 -7 -2 -10 -8 -6 -12 13 -13 25 4 32 45 6 37 9 40
32 36 29 -6 43 16 25 38 -9 10 -7 19 7 36 17 21 19 21 32 5 12 -15 11 -22 -10
-59 -13 -22 -40 -61 -60 -86 -21 -25 -39 -51 -42 -58 -2 -8 -42 -52 -88 -98
-66 -66 -104 -94 -172 -128 l-86 -44 -23 24 c-38 40 -70 31 -217 -63 -85 -55
-134 -65 -339 -68 -212 -3 -210 -2 -244 -96 -17 -46 -30 -63 -58 -80 l-36 -22
40 -18 c46 -21 65 -24 65 -8 0 6 8 8 19 4 16 -5 19 2 24 51 9 87 12 88 200 95
178 7 254 23 325 67 128 80 166 95 186 75 13 -13 54 -10 49 3 -6 16 11 26 31
18 15 -6 15 -7 0 -19 -15 -11 -14 -13 15 -23 30 -10 35 -9 57 16 16 17 22 21
18 9 -5 -13 2 -10 23 10 16 15 60 53 98 83 98 79 165 147 208 211 l37 55 -1
115 c-1 116 -8 167 -22 153z"/>
<path d="M5936 2275 c-8 -9 -12 -23 -9 -31 4 -11 8 -12 13 -4 3 6 14 8 23 4
15 -6 15 -8 -3 -31 -10 -13 -37 -39 -59 -56 -54 -43 -121 -130 -121 -156 0
-48 23 -75 160 -190 22 -19 38 -36 36 -39 -3 -3 -12 1 -21 8 -11 9 -15 9 -15
1 0 -13 40 -31 53 -24 14 8 7 39 -13 56 -12 10 -18 22 -15 27 3 6 -5 14 -18
19 -29 11 -87 87 -87 113 0 31 26 70 84 128 l56 54 0 66 c0 41 -4 60 -9 51 -5
-7 -14 -10 -20 -7 -6 4 -9 12 -6 17 10 15 -12 10 -29 -6z"/>
<path d="M3299 2242 c7 -5 15 -30 17 -54 3 -35 0 -49 -17 -67 -17 -18 -23 -20
-30 -9 -7 10 -9 9 -9 -4 0 -9 -6 -19 -12 -21 -7 -3 2 -3 20 0 17 3 32 2 32 -3
0 -16 -39 -74 -50 -74 -14 0 -13 6 6 25 20 20 15 26 -14 18 -12 -3 -22 -12
-22 -20 0 -9 -6 -13 -15 -9 -9 3 -24 -3 -35 -14 -11 -11 -28 -20 -38 -20 -10
0 -27 -6 -37 -14 -16 -11 -17 -17 -7 -29 10 -11 9 -17 -3 -27 -17 -14 -74 -30
-132 -37 -39 -5 -233 27 -291 47 -24 9 -22 6 13 -25 22 -19 45 -35 50 -35 6 0
21 -6 35 -13 84 -44 218 -61 293 -38 17 5 56 17 85 25 30 9 66 25 82 36 15 11
32 20 37 20 15 0 89 83 116 132 22 38 27 59 27 115 l0 69 -42 12 c-24 7 -50
15 -58 18 -12 5 -12 4 -1 -4z"/>
<path d="M5385 1914 c-128 -120 -178 -142 -285 -122 -25 5 -65 11 -90 14 -24
3 -47 6 -50 6 -16 3 -81 -16 -89 -26 -5 -6 -17 -32 -26 -58 -15 -45 -15 -49
10 -115 14 -37 32 -78 40 -89 19 -29 8 -64 -19 -64 -11 1 -52 5 -91 11 -38 5
-77 10 -85 9 -8 0 -31 0 -50 0 -92 2 -194 -53 -202 -109 -3 -25 -37 -55 -76
-66 -32 -9 -39 19 -18 78 15 40 15 51 5 58 -8 5 -12 22 -11 43 4 47 -10 71
-64 102 -41 24 -50 26 -81 16 -20 -6 -40 -9 -44 -6 -4 2 -23 -14 -42 -36 -34
-40 -34 -43 -35 -131 0 -64 3 -89 11 -86 7 2 15 29 18 61 10 85 19 80 19 -12
0 -44 4 -83 9 -86 10 -6 7 187 -3 202 -9 15 6 23 20 11 8 -7 14 -7 19 1 9 15
67 12 109 -5 45 -19 46 -38 6 -108 -16 -30 -30 -63 -30 -74 0 -28 39 -75 57
-69 8 3 11 2 8 -4 -3 -5 13 -14 35 -21 52 -16 80 -2 131 67 86 117 137 131
326 87 l72 -17 22 28 c17 21 24 24 35 15 28 -23 15 49 -26 145 -45 106 -48
128 -20 156 28 28 85 24 73 -6 -3 -8 0 -14 6 -14 6 0 10 -3 9 -7 -8 -27 29
-107 63 -138 78 -71 145 -61 288 41 19 13 44 24 56 24 24 0 55 -29 54 -51 0
-8 -32 -40 -70 -71 -72 -58 -92 -66 -222 -83 -104 -14 -151 -143 -77 -210 14
-13 47 -19 127 -24 59 -4 110 -6 111 -5 2 1 -2 15 -10 30 -21 43 -72 67 -129
59 -42 -6 -49 -4 -60 16 -10 19 -9 25 10 40 11 9 45 20 73 24 74 9 120 24 112
37 -4 7 -2 8 5 4 15 -10 41 12 35 28 -3 8 2 16 11 20 11 4 14 2 9 -7 -8 -12
21 10 66 52 14 13 18 20 10 15 -13 -7 -13 -6 0 10 8 10 16 14 18 7 2 -7 16 -5
42 5 36 14 41 14 81 -5 23 -12 50 -21 59 -21 9 0 22 -6 29 -12 15 -15 14 -10
-13 49 -11 23 -28 44 -39 47 -23 6 -77 -3 -93 -15 -23 -18 -50 4 -83 67 -19
36 -40 68 -47 71 -17 6 -43 -9 -114 -68 -55 -45 -66 -51 -100 -47 -26 2 -40
-1 -42 -9 -5 -22 -61 20 -101 76 l-37 51 30 15 c36 19 54 19 83 1 12 -7 36
-16 54 -19 26 -5 31 -3 26 8 -3 11 2 15 19 15 30 0 71 28 62 42 -4 7 -2 8 4 4
11 -6 92 29 92 40 0 3 -4 2 -10 -1 -5 -3 -10 1 -10 9 0 9 7 16 15 16 8 0 15 5
15 11 0 5 4 8 9 5 5 -4 7 4 3 16 -4 16 -2 19 8 13 8 -5 18 -1 26 10 8 10 17
16 20 12 4 -4 1 -14 -6 -22 -17 -20 3 -95 26 -95 8 0 17 -7 20 -15 7 -17 34
-21 34 -5 0 6 -7 10 -15 10 -8 0 -24 18 -36 41 -18 36 -19 45 -8 73 6 17 25
43 42 57 l30 26 -33 1 c-18 0 -36 5 -39 11 -4 5 -42 -24 -86 -65z"/>
<path d="M5656 1860 c19 -27 44 -52 54 -55 11 -3 53 -31 95 -60 44 -32 81 -52
90 -49 8 4 15 1 15 -5 0 -6 -5 -11 -11 -11 -6 0 3 -17 20 -37 17 -21 31 -49
31 -63 0 -20 5 -25 25 -26 24 -2 25 1 25 53 0 47 -2 54 -14 44 -12 -10 -20 -9
-41 5 -14 9 -24 23 -21 30 7 19 -23 42 -34 25 -5 -9 -10 -10 -14 -2 -4 6 -4
16 0 23 4 7 3 8 -4 4 -7 -4 -12 -2 -12 3 0 6 -4 11 -10 11 -17 0 -95 92 -92
108 2 10 -2 13 -12 9 -9 -4 -16 -2 -16 3 0 6 -7 10 -15 10 -8 0 -15 5 -15 11
0 7 -10 9 -24 5 -14 -3 -28 -2 -31 4 -3 5 -10 10 -16 10 -5 0 7 -22 27 -50z"/>
<path d="M2047 1601 c-7 -26 16 -45 48 -39 14 3 28 1 31 -3 3 -5 0 -9 -5 -9
-6 0 -11 -4 -11 -9 0 -5 9 -7 20 -4 14 4 20 0 20 -11 0 -10 4 -15 9 -12 15 9
22 -25 9 -41 -10 -13 -8 -14 17 -11 24 2 30 -1 28 -15 0 -12 4 -16 13 -13 8 3
14 -1 14 -9 0 -9 -6 -12 -15 -9 -24 9 -18 -30 7 -52 12 -10 18 -14 15 -7 -5 7
5 14 25 18 18 4 36 12 39 17 4 7 14 6 27 -1 11 -6 23 -7 26 -3 11 18 -21 58
-61 77 -24 12 -60 39 -82 61 -35 37 -92 71 -147 88 -16 5 -23 2 -27 -13z"/>
<path d="M5810 1547 c0 -3 15 -36 33 -74 61 -127 86 -152 131 -131 21 9 26 18
26 50 0 36 -1 38 -21 28 -11 -6 -24 -10 -29 -8 -5 2 -29 32 -52 68 -29 43 -51
66 -65 68 -13 2 -23 1 -23 -1z"/>
<path d="M2953 1453 c-13 -2 -23 -12 -23 -21 0 -12 -3 -13 -12 -4 -23 23 -34
6 -15 -25 4 -6 3 -14 -2 -17 -5 -4 -11 0 -14 6 -2 7 -8 10 -12 6 -4 -4 0 -19
9 -33 9 -14 14 -30 10 -36 -3 -6 3 -19 15 -30 17 -16 25 -18 42 -9 22 12 67
11 86 -3 17 -12 51 1 63 24 9 16 7 19 -12 20 -47 3 -113 -3 -124 -12 -6 -5
-17 0 -28 12 -20 24 -14 38 8 20 12 -10 16 -8 21 8 6 21 35 30 35 11 0 -5 -7
-10 -15 -10 -8 0 -15 -4 -15 -10 0 -5 4 -10 9 -10 6 0 13 5 16 10 3 6 18 10
32 10 19 0 24 4 19 16 -3 9 -6 20 -6 25 0 5 -7 9 -15 9 -8 0 -15 -4 -15 -10 0
-5 -5 -10 -11 -10 -8 0 -7 5 2 16 10 13 10 17 -2 26 -10 7 -7 8 14 4 29 -7 38
8 11 18 -16 6 -34 6 -71 -1z"/>
<path d="M5492 1408 c-32 -20 -68 -79 -75 -124 -3 -17 1 -48 9 -70 8 -21 14
-64 14 -94 0 -54 0 -55 65 -116 l65 -61 -72 -24 c-86 -27 -160 -61 -208 -95
-19 -14 -47 -28 -62 -31 -16 -3 -28 -10 -28 -15 0 -5 -4 -6 -10 -3 -5 3 -10 1
-10 -4 0 -18 -18 -12 -52 17 -18 16 -64 46 -101 67 l-68 37 52 -53 c28 -30 63
-72 78 -94 24 -37 59 -74 71 -75 3 0 19 12 35 28 54 49 239 146 311 162 40 10
114 39 114 46 0 8 -41 98 -82 181 -39 78 -51 114 -52 153 -1 45 2 53 27 68 39
24 58 8 72 -62 6 -31 20 -66 31 -77 18 -17 25 -18 79 -8 64 12 165 -2 165 -22
0 -18 29 -41 42 -33 7 5 3 11 -13 17 -32 13 -3 21 31 9 17 -6 32 -4 52 7 23
13 28 23 28 54 0 38 0 39 -32 32 -18 -4 -56 -9 -85 -10 l-53 -2 -20 54 c-31
83 -58 131 -81 143 -29 16 -32 9 -13 -30 15 -29 18 -53 15 -100 -1 -22 -53
-42 -81 -32 -18 7 -27 24 -41 82 -13 48 -16 77 -9 85 16 19 -75 14 -108 -7z"/>
<path d="M1655 1311 c-16 -4 -43 -14 -59 -23 l-29 -15 26 -17 c21 -14 30 -15
48 -6 19 10 21 10 16 -3 -4 -11 0 -13 14 -10 14 4 30 -6 55 -33 46 -51 57 -78
55 -144 -3 -194 -90 -324 -238 -355 -91 -20 -153 -19 -182 2 -15 10 -21 11
-16 3 6 -10 1 -12 -26 -6 -53 10 -20 -14 59 -43 96 -36 192 -35 258 4 67 39
167 145 199 210 22 44 27 71 30 146 2 79 0 93 -16 107 -10 9 -19 21 -19 27 0
5 5 3 10 -5 7 -10 10 -11 10 -2 0 7 -12 18 -26 24 -19 9 -24 18 -21 34 3 16 0
21 -11 17 -11 -5 -13 -1 -8 14 5 15 -2 28 -29 52 -37 32 -48 34 -100 22z"/>
<path d="M4564 1243 c-48 -48 -80 -73 -96 -73 -13 0 -74 -2 -137 -3 -112 -2
-114 -2 -133 24 -10 14 -25 43 -33 65 -9 27 -15 34 -20 23 -3 -8 0 -26 8 -40
58 -104 74 -113 210 -113 95 0 114 -11 40 -22 -38 -5 -44 -9 -28 -15 11 -4 40
-8 65 -8 25 -1 72 -8 105 -16 76 -18 102 -18 50 1 -47 17 -58 27 -62 54 -4 27
11 25 31 -5 10 -14 33 -29 58 -35 24 -7 58 -19 76 -28 19 -9 46 -16 60 -17 16
0 26 -5 25 -12 -2 -7 1 -13 6 -13 5 0 11 6 14 13 4 10 7 10 18 0 11 -11 11
-13 -2 -14 -7 -1 2 -5 21 -9 19 -5 36 -7 38 -6 7 8 -63 68 -82 71 -11 1 -50
10 -86 20 -36 9 -78 18 -94 19 -25 2 -56 27 -56 46 0 24 51 77 86 89 51 18 78
11 137 -34 26 -20 52 -33 59 -29 8 5 7 10 -3 18 -8 6 -21 25 -28 43 -23 56
-56 78 -119 79 l-56 1 -72 -74z"/>
<path d="M3920 1132 c-74 -74 -133 -148 -195 -241 -54 -81 -109 -150 -140
-176 -45 -39 -159 -95 -191 -95 -7 0 -29 -10 -49 -22 -28 -16 -39 -18 -45 -9
-5 10 -9 8 -14 -4 -8 -21 -26 -10 -26 16 0 21 -15 26 -24 7 -4 -7 -4 -3 -2 10
3 14 -1 22 -10 22 -8 0 -14 -7 -14 -16 0 -15 -15 -38 -71 -107 -14 -18 -32
-50 -39 -72 -15 -45 -69 -146 -84 -157 -6 -4 -14 -4 -18 -2 -4 3 -13 2 -20 -2
-8 -5 -7 -9 5 -13 15 -5 12 -13 -19 -56 -50 -71 -118 -140 -156 -159 -18 -8
-44 -25 -58 -36 l-25 -20 59 0 c53 0 64 4 120 44 89 64 169 163 224 276 43 89
76 117 221 189 159 79 253 140 302 196 48 54 119 157 159 230 18 33 58 86 89
118 30 31 50 57 44 57 -6 0 -14 -6 -16 -12 -3 -7 -6 -8 -6 -3 -1 23 35 54 64
55 68 0 153 -18 202 -43 65 -34 73 -34 39 -2 -15 14 -33 25 -40 25 -8 0 -29 6
-48 14 -19 8 -49 14 -67 14 -18 -1 -40 6 -49 15 -15 16 -15 18 6 33 20 14 22
35 4 34 -4 -1 -54 -49 -112 -108z"/>
<path d="M5280 1091 c0 -42 -29 -61 -91 -63 -30 -1 -63 3 -74 7 -18 8 -18 7
-7 -8 8 -9 43 -30 78 -47 l64 -32 34 21 c36 23 56 63 56 116 0 29 -3 32 -30
33 -26 1 -30 -3 -30 -27z"/>
<path d="M5785 1075 c-56 -20 -76 -50 -72 -104 5 -48 12 -56 88 -101 23 -14
64 -39 90 -57 40 -27 46 -29 42 -12 -3 10 -10 19 -15 19 -5 0 -6 10 -2 22 6
20 5 21 -9 10 -13 -12 -18 -10 -29 8 -7 12 -28 28 -46 37 -46 22 -67 55 -52
82 15 29 48 27 136 -10 41 -17 78 -28 81 -25 4 3 -9 22 -27 41 -19 19 -29 35
-22 35 26 0 9 16 -46 43 -65 31 -64 31 -117 12z"/>
<path d="M3935 947 c-21 -11 -108 -138 -125 -183 -10 -26 -90 -134 -100 -134
-3 0 -30 -18 -60 -41 -47 -35 -123 -81 -140 -84 -3 0 -20 -9 -38 -18 -18 -10
-37 -15 -42 -12 -16 10 -50 -5 -50 -21 0 -8 -4 -14 -10 -14 -18 0 -10 32 9 37
11 3 22 11 25 19 8 20 -7 17 -34 -6 -13 -11 -31 -20 -42 -20 -11 0 -18 -8 -19
-20 -3 -41 -15 -63 -30 -54 -5 3 -8 2 -7 -3 5 -14 -29 -54 -43 -50 -8 2 -11 2
-6 0 14 -8 7 -30 -18 -57 -14 -15 -25 -30 -25 -33 0 -3 -11 -14 -24 -24 -13
-10 -27 -30 -30 -45 -7 -27 -51 -102 -70 -119 -6 -6 -22 -23 -35 -38 l-24 -27
44 0 44 1 77 112 c89 129 140 187 164 187 26 0 12 -68 -31 -156 l-37 -75 22
-24 c20 -21 29 -24 64 -18 71 10 114 39 164 110 117 164 123 171 338 358 96
83 168 166 152 176 -9 6 -7 10 7 15 11 5 20 3 23 -4 2 -7 9 -12 15 -12 7 0 18
-10 25 -21 12 -19 10 -26 -19 -61 -25 -32 -30 -44 -22 -57 16 -25 91 -24 127
2 25 17 29 18 23 4 -3 -9 -2 -17 3 -17 14 0 48 49 61 88 6 20 18 45 27 55 14
16 14 17 -6 14 -12 -2 -25 -6 -28 -10 -4 -4 -11 -7 -16 -7 -5 0 -3 7 6 15 8 8
22 15 30 15 9 0 16 5 16 11 0 5 -5 7 -12 3 -6 -4 -8 -3 -5 3 4 6 20 16 37 21
27 10 31 8 52 -20 12 -17 22 -46 22 -64 1 -18 3 -32 6 -32 19 1 23 -4 10 -12
-17 -11 -7 -24 26 -34 29 -9 73 29 125 105 22 33 46 59 54 59 8 0 15 5 15 10
0 14 56 13 83 -1 12 -6 37 -25 55 -42 50 -48 38 -12 -15 45 -47 49 -49 50 -94
45 -84 -10 -115 -30 -140 -86 -26 -62 -75 -94 -96 -65 -7 10 -16 34 -19 53 -4
20 -13 48 -21 64 -27 54 -103 25 -143 -54 -11 -21 -20 -45 -20 -53 0 -8 -11
-27 -23 -42 -34 -39 -57 -27 -57 29 0 49 -28 89 -75 107 -31 12 -53 4 -84 -29
-14 -14 -29 -25 -33 -24 -4 2 -8 -6 -8 -17 0 -20 -76 -101 -242 -257 -69 -65
-109 -95 -80 -60 7 8 7 18 2 27 -11 16 -11 16 -14 -41 -1 -14 -13 -38 -26 -52
-14 -14 -38 -44 -55 -66 -16 -22 -34 -40 -38 -41 -13 0 -46 -43 -47 -58 0 -8
-6 -12 -12 -9 -15 5 -13 173 3 222 10 32 65 74 159 121 114 56 207 143 286
265 53 83 87 102 209 118 44 6 105 17 135 26 30 8 76 15 103 15 26 0 47 5 47
11 0 6 8 8 18 5 9 -3 89 -7 177 -9 140 -4 167 -7 210 -26 28 -13 63 -25 79
-28 l29 -5 -28 34 c-19 22 -48 40 -94 57 -58 20 -89 24 -261 28 l-196 5 -55
-30 c-30 -16 -69 -33 -86 -36 -47 -11 -106 9 -133 44 -24 32 -33 34 -65 17z"/>
<path d="M5575 780 c-51 -10 -95 -28 -170 -68 -78 -41 -83 -46 -142 -123 -47
-62 -50 -70 -62 -160 -17 -125 -39 -237 -53 -274 -7 -16 -29 -55 -50 -86 -21
-31 -38 -59 -38 -63 0 -3 21 -6 48 -6 l47 0 24 58 c15 35 32 117 46 214 29
196 59 273 134 339 87 77 213 116 349 107 57 -4 68 -8 91 -34 26 -28 51 -35
51 -13 0 16 -64 98 -80 103 -30 10 -156 14 -195 6z"/>
<path d="M4897 753 c17 -12 83 -117 113 -178 37 -76 35 -166 -6 -231 -17 -27
-36 -48 -43 -46 -7 1 -9 -2 -6 -9 8 -12 -29 -48 -147 -140 -42 -33 -79 -67
-82 -75 -7 -17 -77 -50 -131 -61 -35 -7 -30 -8 43 -11 l82 -3 95 81 c52 44
100 80 106 80 13 0 39 -25 39 -38 0 -15 -28 -66 -50 -89 -26 -29 -25 -33 9
-33 24 0 34 8 57 48 15 26 27 55 27 65 -1 10 15 55 36 101 21 46 44 115 51
155 14 81 3 129 -56 256 -37 79 -75 120 -119 130 -18 4 -25 3 -18 -2z"/>
<path d="M4626 698 c-3 -13 -7 -39 -10 -58 -8 -49 -38 -94 -87 -130 -50 -36
-95 -49 -209 -61 -92 -10 -129 -17 -231 -47 -65 -20 -67 -20 -95 -1 -16 10
-38 19 -50 19 -22 0 -83 -40 -131 -87 -16 -16 -40 -37 -53 -48 -27 -22 -110
-137 -110 -153 0 -5 -18 -37 -40 -70 l-40 -62 28 0 c23 1 33 11 70 78 64 114
93 145 139 147 35 1 52 -8 53 -29 0 -5 -6 -3 -14 4 -12 9 -17 4 -26 -32 -7
-24 -22 -61 -35 -83 -12 -22 -26 -50 -29 -62 -7 -21 -4 -23 27 -23 32 0 36 4
57 53 14 30 26 85 30 132 8 87 22 134 42 136 7 1 29 3 48 5 19 1 76 12 125 23
164 39 285 61 333 61 100 0 177 59 248 188 33 60 33 62 9 46 -14 -9 -25 -23
-25 -31 0 -11 -3 -11 -13 -2 -17 16 -9 80 12 96 15 11 14 12 -1 13 -10 0 -20
-9 -22 -22z"/>
<path d="M5585 631 c-72 -11 -100 -25 -147 -73 -56 -59 -93 -143 -118 -273
-40 -204 -52 -255 -61 -261 -21 -12 -6 -24 30 -24 l39 0 7 53 c7 57 28 181 44
265 22 109 85 211 148 237 20 8 60 15 91 15 48 0 60 -4 98 -35 23 -19 47 -35
53 -35 21 0 22 21 2 53 -46 76 -87 92 -186 78z"/>
<path d="M5865 609 c11 -13 29 -31 39 -40 40 -34 29 -222 -16 -279 -25 -30
-78 -60 -106 -60 -10 0 -23 -5 -29 -11 -8 -8 -13 -7 -18 1 -4 7 5 24 21 41 26
28 27 31 12 40 -27 15 -21 29 11 29 27 0 60 21 62 38 0 4 2 15 4 25 5 27 -15
77 -30 77 -7 0 -21 3 -30 7 -15 5 -16 3 -6 -16 16 -29 7 -53 -30 -80 -27 -20
-33 -21 -45 -9 -8 8 -17 32 -19 53 -3 21 -8 41 -11 44 -14 14 -106 4 -132 -15
-37 -28 -91 -139 -92 -190 0 -80 72 -185 166 -240 39 -23 49 -24 175 -22 189
4 182 28 -16 53 -27 4 -71 6 -97 6 -44 0 -50 3 -97 54 -55 61 -74 116 -61 182
16 91 67 135 114 100 17 -12 17 -15 2 -52 -18 -43 -19 -127 -1 -152 13 -17
108 -53 141 -53 34 0 138 57 161 88 32 43 53 126 53 207 0 61 -4 77 -28 116
-34 52 -47 64 -87 73 l-29 7 19 -22z"/>
<path d="M4777 578 c-8 -30 0 -36 18 -12 11 13 14 14 13 4 -4 -21 -20 -31 -40
-24 -10 3 -18 0 -18 -7 0 -6 -28 -47 -62 -89 -74 -91 -114 -114 -233 -131
-208 -29 -321 -59 -376 -102 -9 -7 -26 -44 -39 -82 -45 -142 -45 -135 2 -135
22 0 28 4 28 23 0 31 53 138 81 164 13 12 38 27 54 33 37 15 203 39 270 40 28
1 67 7 88 14 65 23 147 87 175 136 77 137 96 153 139 124 30 -19 29 -33 -6
-103 -38 -75 -67 -108 -156 -180 -106 -86 -111 -88 -267 -93 -123 -4 -142 -8
-192 -32 -57 -28 -86 -64 -86 -106 0 -16 6 -20 30 -20 22 0 30 5 30 18 0 10 7
27 15 39 15 22 43 27 205 39 182 12 238 40 386 189 72 73 93 103 104 148 8 39
-14 94 -45 111 -11 6 -37 21 -57 33 -47 29 -54 29 -61 1z"/>
</g>
</svg>
